<?xml version="1.0" encoding="utf-8"?>
<!-- Generator: Adobe Illustrator 24.3.0, SVG Export Plug-In . SVG Version: 6.00 Build 0)  -->
<svg version="1.1" id="Layer_1" xmlns="http://www.w3.org/2000/svg" xmlns:xlink="http://www.w3.org/1999/xlink" x="0px" y="0px"
	 viewBox="0 0 1080 1080" style="enable-background:new 0 0 1080 1080;" xml:space="preserve">
<style type="text/css">
	.st0{fill:#FFFFFF;}
</style>
<g>
	<path class="st0" d="M1053.7,441.42c-1.68-1.27-4.32-0.63-6.15,1.38c-0.07,0.06-0.13,0.11-0.2,0.18c-0.42,0.43-3.08,4.36-3.41,4.72
		c-13.07,17.43-29.14,31.62-47.9,42.26c-13.52,8.82-28.54,13.42-45.63,14.07c-17.77-1.15-26.4-9.93-26.4-26.86
		c0-0.29,0.8-1.44,3.27-2.43c3.09-1.24,33.9-27.08,39.64-59.77l0.65-5.99c0-12.77-6-15.45-11.04-15.45
		c-5.36,0-11.22,3.24-19.84,11.11c-10.46,12.48-17.71,25.51-21.68,38.95c-22.01,7.07-41.14,10.56-58.24,10.56
		c-17.48,0-34.76-3.81-52.74-11.64v-0.06c0-10.68-3.13-19.45-9.03-25.36c-6.16-6.16-11.81-9.03-17.78-9.03
		c-4.96,0-8.49,2.62-10.8,8.02l-0.23,2.38c0,3.21,1.63,6.61,5.55,11.47c-3.12,4.28-5.86,8.48-8.23,12.59
		c-9.93,2.13-25.54,7.77-46.69,16.91c-18.76,7.93-34.05,14.77-48.12,21.52l-13.51,6.52c0.43-2.36,0.73-3.13,0.84-3.35l0.21-0.55
		c5.51-21.4,8.3-43.95,8.3-67c0-33.98-7.12-64.8-21.23-91.72c-24.01-40.88-58.26-60.74-104.72-60.74
		c-45.44,0-99.47,19.05-160.59,56.61c-45.19,27.62-90.15,61.07-133.63,99.43c-22.36,19.88-45.01,40.62-67.34,61.67
		c-0.73,0.4-1.3,0.81-1.8,1.24c31.84-47.21,47.32-78.67,47.32-96.16c0-16.3-8.84-24.92-25.55-24.92c-14.34,0-31.4,5.87-50.71,17.45
		c-39.55,23.85-78.44,58.04-115.46,101.45c-3.68,3.68-5.88,8.2-5.88,12.1c0,5.98,3.16,9.14,9.14,9.14c3.43,0,6.57-1.62,10.03-5.08
		c4.76-4.01,27.62-23.39,31.24-28.08c1.33-1.42,1.33-2.99,1.33-3.76c0-1.92-0.82-3.56-1.56-5.05l-0.53-0.74
		c-0.14-0.15-0.44-0.6-0.43-0.53c0-0.14,0.03-0.48,0.34-0.63l0.69-0.49c35.07-33.76,66.22-56.93,95.17-70.8
		c11.26-5,19.72-7.34,26.63-7.34c6.06,0,7.28,2.54,7.28,6.65c0,9.02-4.99,21.47-14.16,35.24c-6.9,12.25-21.24,34.6-38.41,59.8
		c0,0-24.36,39.13-25.1,44.5c0,7.74,3.71,11.66,11.03,11.66c5.73,0,11.45-3.3,15.87-9.01l34.75-34.13
		c50.4-51.01,99.37-94.68,145.52-129.78c47.71-34.81,90.43-58.64,130.72-72.9c25.15-10.06,48.76-14.95,72.19-14.95
		c42.43,0,74.31,19.47,94.73,57.82c12.54,24.45,18.63,50.88,18.63,80.79c0,26.13-3.47,49.81-10.69,72.74
		c-1.03,5.69-4.01,9.56-9.19,11.86c-55.09,26.89-111.34,57.7-171.96,94.19c-60.8,36.36-107.55,72.66-138.93,107.88
		c-10.5,11.73-18.55,25.87-23.96,42.11c-2.18,7.24-3.28,13.67-3.28,19.12c0,19.8,10.94,35.31,32.5,46.09l0.13,0.06
		c10.2,4.47,20,6.55,30.81,6.55c4.04,0,8-0.66,11.82-1.3c22.74-3.78,44.75-12.68,63.58-25.66c26.34-16.93,50.24-36.26,73.09-59.11
		c66.91-67.54,115.56-143.09,144.59-224.52c0.73-1.93,8.26-9.03,62.28-33.14c13.53-6.06,28.87-11.9,46.79-17.83
		c-3.52,8.47-5.34,16.53-5.34,24.09c0,4.04,0.66,7.37,1.31,10.59l2.78-0.49l-2.77,0.55l0.07,0.29c2.3,7.36,6.59,17.13,17.22,17.13
		c3.95,0,9.76-1.64,14.86-9.3c8.63-11.09,14.16-24.55,16.88-41.12c0.4-0.78,0.59-1.77,0.68-3.03c17.26,7.39,35.44,11.14,54.09,11.14
		c17.49,0,35.6-3.11,55.16-9.45c-0.71,4.49-1.16,9.01-1.16,13.58c0,30.78,13.27,46.39,39.44,46.39c8.46,0,16.73-1.61,26.97-5.27
		c31.06-12.94,56.54-33.45,75.95-61.33l0.02-0.05c0,0,0,0,0,0C1055.49,445.7,1055.46,442.76,1053.7,441.42z M943.01,415.09
		c5.56-7.41,9.86-10.87,13.53-10.87c0.19,0,1.6,1.27,1.6,6.02c0,4.64-1.08,8.81-2.97,13.52c-10.76,26.94-27.75,38.87-30.87,39.81
		C926.09,445.38,932.37,429.09,943.01,415.09z M629.4,519.11c-21.11,55.66-53.24,109.35-95.54,159.62
		c-27.78,34.73-59.67,65.14-94.82,90.42c-22.07,16.39-43.36,26.85-63.3,31.07l-0.23,0.06c-5.41,1.62-11.34,2.41-18.13,2.41
		c-7.36,0-15.37-1.27-23.04-3.62c-15.18-5.47-24.28-15.65-27.81-31.12v-5.37c0-16.42,9.57-35.64,27.69-55.57
		c34.2-37.93,86.45-77.62,159.73-121.32c45.72-27.05,88.15-50.38,126.17-69.4l12.69-6.8C632.02,513.24,630.91,516.42,629.4,519.11z
		 M776.94,416.23c3.02,0.18,6.74,2.67,10.8,7.25l0.12,0.12c3.48,3.48,5.59,7.91,6.39,13.46c-4.56-3-16.72-14.74-17.66-16.08
		c-0.95-1.91-1.33-3.07-1.49-3.74C775.42,416.92,775.96,416.52,776.94,416.23z M777.53,490.59l-0.07,0.09
		c-3.4,4.76-5.09,5.76-5.91,5.76c-0.96,0-3.51,0-4.23-5.53c-1.12-3.9-1.79-8.1-1.79-11.22c0-11,5.74-24.82,16.62-40.09
		c3.88,3.15,7.89,6.01,12.17,8.67C791.11,466.35,785.6,480.21,777.53,490.59z"/>
	<path class="st0" d="M952.24,368.25c1.59,1.55,3.8,3.26,6.98,3.26c3.91,0,6.24-2.54,6.24-6.78c0-2.86-2.16-3.94-2.57-4.1
		c-5.01-3.9-8.75-10.41-11.05-19.09c-0.69-4.78-4.14-7.52-9.48-7.52l-2.54,0.82c-2.13,0.83-3.3,1.28-4.08,2.07l-0.71,0.71v5.36
		l0.08,0.62C937.94,354.32,943.54,362.39,952.24,368.25z"/>
</g>
</svg>
